M48
; DRILL file {KiCad 8.0.3-8.0.3-0~ubuntu22.04.1} date 2024-06-11T22:30:08+0200
; FORMAT={-:-/ absolute / inch / decimal}
; #@! TF.CreationDate,2024-06-11T22:30:08+02:00
; #@! TF.GenerationSoftware,Kicad,Pcbnew,8.0.3-8.0.3-0~ubuntu22.04.1
; #@! TF.FileFunction,Plated,1,2,PTH
FMAT,2
INCH
; #@! TA.AperFunction,Plated,PTH,ViaDrill
T1C0.0118
; #@! TA.AperFunction,Plated,PTH,ComponentDrill
T2C0.0276
; #@! TA.AperFunction,Plated,PTH,ComponentDrill
T3C0.0300
; #@! TA.AperFunction,Plated,PTH,ComponentDrill
T4C0.0354
; #@! TA.AperFunction,Plated,PTH,ComponentDrill
T5C0.0374
; #@! TA.AperFunction,Plated,PTH,ComponentDrill
T6C0.0394
; #@! TA.AperFunction,Plated,PTH,ComponentDrill
T7C0.0472
%
G90
G05
T1
X5.6181Y-4.9862
X5.6181Y-5.3091
X5.7402Y-5.25
X5.7835Y-5.0394
X6.0866Y-5.0433
T2
X4.6343Y-4.5807
X4.6343Y-4.7146
X4.6343Y-4.8484
X4.6343Y-4.9823
X4.8343Y-4.5807
X4.8343Y-4.7146
X4.8343Y-4.8484
X4.8343Y-4.9823
X6.0748Y-5.4213
X6.0748Y-5.5728
X6.0748Y-5.7244
X6.2748Y-5.4213
X6.2748Y-5.5728
X6.2748Y-5.7244
T3
X5.1618Y-4.0156
X5.2618Y-4.0156
X5.3618Y-4.0156
X5.4618Y-4.0156
X5.5618Y-4.0156
X5.6618Y-4.0156
X5.7618Y-4.0156
X5.8618Y-4.0156
T4
X5.1378Y-4.6742
X5.1378Y-4.7742
X5.462Y-4.3504
X5.462Y-5.0984
X5.562Y-4.3504
X5.562Y-5.0984
X5.8858Y-4.6746
X5.8858Y-4.7746
T5
X6.0551Y-4.2657
X6.0551Y-4.3642
X6.0551Y-4.4626
T6
X5.2116Y-5.261
X5.2116Y-5.361
X5.2116Y-5.461
X5.2116Y-5.561
X5.2116Y-5.661
X5.2116Y-5.761
X5.2116Y-5.861
X5.812Y-5.261
X5.812Y-5.361
X5.812Y-5.461
X5.812Y-5.561
X5.812Y-5.661
X5.812Y-5.761
X5.812Y-5.861
X6.3179Y-4.8346
X6.3179Y-4.9331
T7
X5.2657Y-4.626
X5.2657Y-4.8228
X5.7579Y-4.626
X5.7579Y-4.8228
M30
